<svg width="500" height="500" viewBox="0 0 500 500" fill="none" xmlns="http://www.w3.org/2000/svg">
<path d="M144.5 67.2688L250 7.4715L355.499 67.2685L460.036 128.736L461 250L460.036 371.264L355.499 432.732L250 492.529L144.5 432.731L39.9642 371.264L39.0002 250L39.9642 128.736L144.5 67.2688Z" fill="#252F44" stroke="#64FFDA" stroke-width="13"/>
<path d="M295.576 201.727C294.425 192.011 289.759 184.469 281.577 179.099C273.396 173.73 263.36 171.045 251.471 171.045C242.778 171.045 235.171 172.452 228.651 175.264C222.195 178.077 217.146 181.944 213.502 186.866C209.922 191.788 208.133 197.381 208.133 203.645C208.133 208.886 209.379 213.393 211.872 217.164C214.429 220.871 217.689 223.972 221.652 226.464C225.615 228.893 229.77 230.907 234.116 232.505C238.463 234.039 242.458 235.286 246.101 236.244L266.045 241.614C271.158 242.956 276.847 244.81 283.111 247.175C289.44 249.54 295.48 252.768 301.233 256.859C307.05 260.886 311.844 266.063 315.615 272.391C319.386 278.719 321.272 286.486 321.272 295.69C321.272 306.301 318.491 315.889 312.93 324.455C307.433 333.02 299.379 339.827 288.768 344.877C278.222 349.927 265.405 352.452 250.32 352.452C236.258 352.452 224.081 350.183 213.79 345.644C203.562 341.106 195.508 334.778 189.628 326.66C183.811 318.542 180.519 309.114 179.752 298.375H204.297C204.937 305.79 207.43 311.926 211.776 316.784C216.187 321.578 221.748 325.158 228.459 327.523C235.235 329.824 242.522 330.974 250.32 330.974C259.397 330.974 267.547 329.504 274.77 326.564C281.993 323.56 287.714 319.405 291.932 314.099C296.151 308.73 298.261 302.466 298.261 295.307C298.261 288.787 296.439 283.482 292.795 279.391C289.152 275.3 284.358 271.976 278.413 269.419C272.469 266.862 266.045 264.625 259.141 262.707L234.979 255.804C219.638 251.393 207.494 245.097 198.545 236.915C189.596 228.734 185.121 218.027 185.121 204.795C185.121 193.801 188.094 184.213 194.038 176.031C200.047 167.786 208.101 161.393 218.2 156.855C228.364 152.253 239.709 149.952 252.238 149.952C264.894 149.952 276.144 152.221 285.988 156.759C295.832 161.234 303.63 167.37 309.383 175.168C315.199 182.967 318.268 191.82 318.587 201.727H295.576Z" fill="#64FFDA"/>
</svg>
